# xmcd CD database file
#
# Track frame offsets:
#	150
#	11825
#	58488
#	72310
#	85923
#	107470
#	128543
#	130990
#	156255
#	163880
#	173983
#	194040
#	206275
#	220783
#	234045
#	238583
#	241823
#
# Disc length: 3408 seconds
#
# Revision: 2
# Processed by: cddbd v1.5.2PL0 Copyright (c) Steve Scherf et al.
# Submitted via: CDex 1.70beta3
#
DISCID=ec0d4e11
DTITLE=NAMCO - 塊オリジナルサウンドトラック魂 [DISC1]
DYEAR=2005
DGENRE=Game
TTITLE0=Overture III
TTITLE1=塊オンザファンク (塊ソウルトレインズ)
TTITLE2=カタマリゾート
TTITLE3=シャバドゥビー
TTITLE4=ジーザスアイランド
TTITLE5=Family魂
TTITLE6=塊オンザムーグ
TTITLE7=輝け！Mr.サンシャイン (松崎しげる)
TTITLE8=KATAMARYTHM箱
TTITLE9=DAN DON FUGA
TTITLE10=草原トロン
TTITLE11=ワンチップマーチ
TTITLE12=ドレミカタマリド
TTITLE13=スターライト・ジャンボリー
TTITLE14=みんなDancing塊魂
TTITLE15=LOVE&PEACE&塊魂
TTITLE16=大コスモサロン
EXTD=YEAR: 2005
EXTT0=
EXTT1=
EXTT2=
EXTT3=
EXTT4=
EXTT5=
EXTT6=
EXTT7=
EXTT8=
EXTT9=
EXTT10=
EXTT11=
EXTT12=
EXTT13=
EXTT14=
EXTT15=
EXTT16=
PLAYORDER=
